<?xml version="1.0" encoding="UTF-8" standalone="no"?><!DOCTYPE svg PUBLIC "-//W3C//DTD SVG 1.1//EN" "http://www.w3.org/Graphics/SVG/1.1/DTD/svg11.dtd"><svg width="100%" height="100%" viewBox="0 0 968 720" version="1.1" xmlns="http://www.w3.org/2000/svg" xmlns:xlink="http://www.w3.org/1999/xlink" xml:space="preserve" xmlns:serif="http://www.serif.com/" style="fill-rule:evenodd;clip-rule:evenodd;stroke-linejoin:round;stroke-miterlimit:2;"><g><g><g><g><path d="M326.938,398.695c-5.198,1.392 -10.545,-1.688 -11.939,-6.893c-1.393,-5.198 1.695,-10.547 6.893,-11.939c5.197,-1.393 10.546,1.695 11.939,6.893c1.394,5.205 -1.696,10.546 -6.893,11.939Z" style="fill:#379c6f;"/><path d="M325.64,363.72l2.271,8.475l-15.066,4.037l-6.055,-22.599l7.533,-2.018c8.316,-2.229 13.255,-10.794 11.028,-19.103c-2.228,-8.316 -10.786,-13.257 -19.102,-11.029c-8.316,2.229 -13.257,10.787 -11.029,19.103l-15.065,4.037c-4.451,-16.61 5.447,-33.755 22.057,-38.205c16.61,-4.451 33.754,5.448 38.205,22.057c3.756,14.019 -2.698,28.408 -14.777,35.245Z" style="fill:#379c6f;"/></g><g><path d="M605.348,404.862c-4.66,-2.691 -6.263,-8.65 -3.568,-13.316c2.69,-4.66 8.656,-6.259 13.316,-3.568c4.66,2.69 6.259,8.656 3.568,13.316c-2.694,4.667 -8.656,6.258 -13.316,3.568Z" style="fill:#379c6f;"/><path d="M629.161,379.214l-4.387,7.597l-13.507,-7.798l11.698,-20.261l6.753,3.899c7.456,4.305 17.005,1.74 21.306,-5.709c4.305,-7.456 1.748,-17.001 -5.709,-21.306c-7.456,-4.305 -17.001,-1.747 -21.306,5.709l-13.507,-7.799c8.598,-14.892 27.72,-20.015 42.612,-11.417c14.892,8.598 20.016,27.72 11.418,42.612c-7.257,12.568 -21.995,18.179 -35.371,14.473Z" style="fill:#379c6f;"/></g><g><path d="M623.244,150.996c-7.133,-1.912 -11.374,-9.242 -9.46,-16.386c1.912,-7.133 9.252,-11.371 16.385,-9.46c7.134,1.912 11.372,9.252 9.46,16.386c-1.914,7.143 -9.252,11.371 -16.385,9.46Z" style="fill:#379c6f;"/><path d="M645.701,108.537l-3.116,11.63l-20.676,-5.54l8.31,-31.014l10.338,2.77c11.413,3.058 23.161,-3.733 26.216,-15.136c3.059,-11.413 -3.722,-23.158 -15.136,-26.217c-11.413,-3.058 -23.158,3.723 -26.216,15.136l-20.676,-5.54c6.108,-22.795 29.637,-36.38 52.433,-30.272c22.795,6.108 36.38,29.637 30.272,52.433c-5.156,19.239 -22.701,31.912 -41.749,31.75Z" style="fill:#379c6f;"/></g><g><path d="M352.532,126.165c-4.384,0.589 -8.419,-2.483 -9.01,-6.873c-0.59,-4.384 2.489,-8.42 6.873,-9.01c4.384,-0.59 8.42,2.49 9.01,6.873c0.59,4.39 -2.49,8.42 -6.873,9.01Z" style="fill:#379c6f;"/><path d="M355.146,97.516l0.961,7.147l-12.706,1.709l-2.564,-19.059l6.353,-0.855c7.014,-0.943 11.94,-7.408 10.997,-14.415c-0.944,-7.014 -7.402,-11.94 -14.415,-10.997c-7.014,0.944 -11.941,7.402 -10.997,14.415l-12.706,1.71c-1.885,-14.009 7.985,-26.946 21.993,-28.831c14.009,-1.884 26.946,7.985 28.831,21.994c1.591,11.823 -5.182,22.876 -15.747,27.182Z" style="fill:#379c6f;"/></g></g><path d="M581.004,141.064c-18.605,-8.669 -38.214,-14.769 -58.33,-18.237c-2.743,5.022 -5.259,10.165 -7.479,15.428c-21.403,-3.23 -43.218,-3.23 -64.635,-0c-2.277,-5.263 -4.779,-10.406 -7.522,-15.368c-20.188,3.468 -39.796,9.567 -58.401,18.238c-36.983,55.431 -46.964,109.546 -41.945,162.823c21.644,16.204 45.847,28.522 71.577,36.415c5.782,-7.893 10.914,-16.323 15.296,-25.114c-8.355,-3.169 -16.455,-7.055 -24.16,-11.72c2.05,-1.493 4.029,-2.989 5.952,-4.664c45.324,21.647 97.716,21.647 143.054,-0c1.923,1.615 3.902,3.171 5.882,4.664c-7.691,4.605 -15.806,8.551 -24.148,11.72c4.44,8.791 9.515,17.162 15.283,25.054c25.73,-7.892 49.933,-20.21 71.578,-36.414l0.07,-0c5.881,-61.71 -10.037,-115.286 -42.072,-162.825l-0,0Zm-145.105,130.104c-13.954,-0 -25.447,-12.976 -25.447,-28.762c-0,-15.785 11.211,-28.761 25.447,-28.761c14.236,0 25.659,12.976 25.433,28.761c-0,15.786 -11.268,28.762 -25.433,28.762Zm93.929,-0c-13.954,-0 -25.448,-12.976 -25.448,-28.762c0,-15.785 11.267,-28.761 25.448,-28.761c14.164,0 25.658,12.976 25.432,28.761c-0,15.786 -11.268,28.762 -25.432,28.762Z" style="fill:#5165f6;fill-rule:nonzero;"/></g><g><g transform="matrix(0.460242,0,0,0.460242,-144.771,346.319)"><clipPath id="_clip1"><path d="M314.555,398.017l-0,205.332l76.849,-0c41.199,0.29 79.751,-20.29 79.751,-67.556l-0,-69.059c-0,-47.848 -38.552,-68.717 -79.751,-68.717l-76.849,0Zm52.176,156.636l-0,-108.231l26.414,0c17.417,0 25.834,8.415 25.834,21.762l0,64.127c0,13.347 -8.127,22.342 -25.834,22.342l-26.414,0Zm184.193,-156.636l-51.886,0l-0,205.332l51.886,-0l-0,-205.332Zm22.661,171.131c19.132,24.638 45.22,37.101 69.883,37.101c37.727,0 79.466,-21.739 81.206,-61.462c2.32,-50.487 -34.204,-63.254 -70.755,-69.927c-15.966,-3.482 -26.707,-9.285 -27.288,-19.151c0.871,-23.786 37.738,-24.655 59.201,-1.741l33.914,-26.102c-21.16,-25.794 -45.218,-32.75 -70.182,-32.75c-37.716,0 -74.239,21.157 -74.239,61.464c0,39.171 30.146,60.062 63.208,65.285c16.837,2.321 35.705,8.995 35.125,20.601c-1.451,22.045 -46.737,20.885 -67.317,-4.062l-32.756,30.744Zm278.138,-29.874c-11.312,28.425 -57.723,21.469 -57.723,-3.192l-0,-70.799c-0,-25.53 45.831,-31.327 59.754,-5.803l42.35,-17.118c-16.534,-36.521 -46.991,-47.246 -72.227,-47.246c-41.182,0 -81.763,23.768 -81.763,70.167l0,70.799c0,46.689 40.581,70.167 80.893,70.167c25.816,0 56.853,-12.753 73.967,-46.086l-45.251,-20.889Zm59.21,-3.482c0,46.979 42.61,70.457 85.262,70.457c42.651,0 84.972,-23.478 84.972,-70.457l-0,-70.219c-0,-46.979 -42.611,-70.457 -85.262,-70.457c-42.652,0 -84.972,23.188 -84.972,70.457l0,70.219Zm51.886,-70.219c0,-15.088 16.253,-23.212 32.506,-23.212c16.833,0 33.956,7.253 33.956,23.212l-0,70.219c-0,14.798 -16.543,22.342 -33.086,22.342c-16.543,0 -33.376,-7.254 -33.376,-22.342l0,-70.219Zm255.294,137.776l64.65,-0l-55.954,-70.483c24.928,-7.825 40.291,-29.273 40.291,-67.285c-1.16,-48.144 -33.914,-67.564 -76.268,-67.564l-82.073,0l0,205.332l52.466,-0l0,-65.266l9.288,0l47.6,65.266Zm-56.888,-109.9l0,-47.027l30.477,0c32.788,0 32.788,47.027 0,47.027l-30.477,0Zm134.918,-95.432l-0,205.332l76.849,-0c41.199,0.29 79.751,-20.29 79.751,-67.556l-0,-69.059c-0,-47.848 -38.552,-68.717 -79.751,-68.717l-76.849,0Zm52.176,156.636l-0,-108.231l26.414,0c17.417,0 25.834,8.415 25.834,21.762l0,64.127c0,13.347 -8.127,22.342 -25.834,22.342l-26.414,0Zm328.356,-107.651l-0,-49.275l-161.531,0l-0,49.275l54.532,0l0,156.347l52.466,-0l0,-156.347l54.533,0Zm129.695,156.347l64.65,-0l-55.954,-70.483c24.928,-7.825 40.29,-29.273 40.29,-67.285c-1.159,-48.144 -33.913,-67.564 -76.268,-67.564l-82.072,0l-0,205.332l52.466,-0l-0,-65.266l9.288,0l47.6,65.266Zm-56.888,-109.9l-0,-47.027l30.477,0c32.788,0 32.788,47.027 -0,47.027l-30.477,0Zm186.803,-95.432l-51.886,0l0,205.332l51.886,-0l0,-205.332Zm120.975,100.346l-9.281,48.433l-0.87,-0l-9.28,-48.723l-32.192,-100.346l-55.682,0l73.953,205.331l47.563,0l73.953,-205.331l-55.683,0l-32.481,100.636Zm153.719,-100.346l-51.886,0l0,205.332l51.886,-0l-0,-205.332Zm133.445,0l-47.272,0l-71.633,205.332l55.682,-0l12.761,-41.19l54.813,-0l13.34,41.19l55.682,-0l-73.373,-205.332Zm-38.861,118.057l15.08,-60.043l1.45,-0l14.211,60.043l-30.741,0Z" clip-rule="nonzero"/></clipPath><g clip-path="url(#_clip1)"><text x="298.293px" y="603.367px" style="font-family:'UniSansHeavyCAPS', 'Uni Sans';font-weight:900;font-size:290.067px;">Discord <tspan x="1511.07px 1680.75px " y="603.367px 603.367px ">Tr</tspan>ivia</text><g transform="matrix(2.12254,0,0,2.25225,-2175.97,-4647.88)"><rect x="780.259" y="1742.99" width="940.071" height="822.562" style="fill:#5165f6;"/></g><g transform="matrix(2.12254,0,0,2.25225,-180.639,-4647.88)"><rect x="780.259" y="1742.99" width="940.071" height="822.562" style="fill:#379c6f;"/></g></g></g></g></g></svg>